<?xml version="1.0" encoding="UTF-8" standalone="no"?><!DOCTYPE svg PUBLIC "-//W3C//DTD SVG 1.1//EN" "http://www.w3.org/Graphics/SVG/1.1/DTD/svg11.dtd"><svg width="100%" height="100%" viewBox="0 0 40 40" version="1.1" xmlns="http://www.w3.org/2000/svg" xmlns:xlink="http://www.w3.org/1999/xlink" xml:space="preserve" xmlns:serif="http://www.serif.com/" style="fill-rule:evenodd;clip-rule:evenodd;"><path d="M39,20c0,10.486 -8.514,19 -19,19c-10.486,0 -19,-8.514 -19,-19c0,-10.486 8.514,-19 19,-19c10.486,0 19,8.514 19,19Z" style="fill:none;stroke:#fff;stroke-width:2px;"/><path d="M16.263,10.404c-0.391,-0.39 -1.024,-0.39 -1.415,0c-0.39,0.391 -0.39,1.024 0,1.414l1.415,-1.414Zm8.182,9.596l0.707,0.707l0.707,-0.707l-0.707,-0.707l-0.707,0.707Zm-9.596,8.182c-0.391,0.39 -0.391,1.023 -0,1.414c0.39,0.39 1.023,0.39 1.414,-0l-1.415,-1.414Zm0,-16.364l8.889,8.889l1.415,-1.414l-8.889,-8.889l-1.415,1.414Zm8.889,7.475l-8.889,8.889l1.415,1.414l8.889,-8.889l-1.415,-1.414Z" style="fill:#fff;fill-rule:nonzero;"/></svg>