<?xml version="1.0" encoding="UTF-8" standalone="no"?><!DOCTYPE svg PUBLIC "-//W3C//DTD SVG 1.1//EN" "http://www.w3.org/Graphics/SVG/1.1/DTD/svg11.dtd"><svg width="100%" height="100%" viewBox="0 0 6 6" version="1.1" xmlns="http://www.w3.org/2000/svg" xmlns:xlink="http://www.w3.org/1999/xlink" xml:space="preserve" xmlns:serif="http://www.serif.com/" style="fill-rule:evenodd;clip-rule:evenodd;stroke-linejoin:round;stroke-miterlimit:2;"><path d="M3.109,1.317l-0.035,-0.02c-0.105,-0.064 -0.243,-0.03 -0.307,0.076l-0.226,0.377c-0.064,0.106 -0.03,0.243 0.076,0.307l0.104,0.063l-1.363,2.265c-0.239,0.399 -0.256,0.667 -0.21,0.824c-0.012,0.028 -0.076,0.181 -0.096,0.27c-0.034,0.148 -0.009,0.285 0.147,0.379c0.158,0.095 0.291,0.051 0.404,-0.049c0.069,-0.06 0.171,-0.187 0.191,-0.212c0.16,-0.034 0.389,-0.174 0.628,-0.572l1.363,-2.265l0.1,0.06c0.106,0.063 0.243,0.029 0.307,-0.077l0.227,-0.377c0.063,-0.105 0.029,-0.243 -0.077,-0.306l-0.034,-0.021l0.57,-0.947c0.165,-0.275 0.076,-0.632 -0.199,-0.797l-0.204,-0.123c-0.274,-0.165 -0.631,-0.076 -0.796,0.198l-0.57,0.947Zm0.423,1.29l-1.363,2.266c-0.179,0.298 -0.329,0.418 -0.443,0.437c-0.036,0.005 -0.074,0.021 -0.111,0.051c-0.041,0.032 -0.086,0.087 -0.133,0.146c-0.026,0.032 -0.054,0.066 -0.086,0.09c-0.013,0.01 -0.027,0.019 -0.044,0.008c-0.019,-0.011 -0.018,-0.028 -0.015,-0.045c0.006,-0.039 0.023,-0.08 0.039,-0.119c0.028,-0.069 0.056,-0.135 0.065,-0.186c0.008,-0.046 0.004,-0.087 -0.008,-0.121c-0.037,-0.11 -0.001,-0.298 0.178,-0.596l1.364,-2.266l0.557,0.335Z" style="fill:#fff;"/></svg>