<?xml version="1.0" encoding="UTF-8" standalone="no"?><!DOCTYPE svg PUBLIC "-//W3C//DTD SVG 1.1//EN" "http://www.w3.org/Graphics/SVG/1.1/DTD/svg11.dtd"><svg width="100%" height="100%" viewBox="0 0 6 6" version="1.1" xmlns="http://www.w3.org/2000/svg" xmlns:xlink="http://www.w3.org/1999/xlink" xml:space="preserve" xmlns:serif="http://www.serif.com/" style="fill-rule:evenodd;clip-rule:evenodd;stroke-linejoin:round;stroke-miterlimit:2;"><path d="M3.198,4.514l2.355,-2.769c0.072,-0.084 0.062,-0.211 -0.022,-0.282c-0.084,-0.072 -0.211,-0.061 -0.282,0.023l-2.355,2.769c-0.072,0.084 -0.062,0.211 0.022,0.282c0.085,0.072 0.211,0.061 0.282,-0.023Z" style="fill:#fff;"/><path d="M3.194,4.25l-2.448,-2.673c-0.074,-0.081 -0.201,-0.087 -0.282,-0.012c-0.082,0.074 -0.087,0.201 -0.013,0.282l2.448,2.673c0.074,0.081 0.201,0.087 0.282,0.012c0.082,-0.074 0.087,-0.201 0.013,-0.282Z" style="fill:#fff;"/></svg>