<?xml version="1.0" encoding="UTF-8" standalone="no"?><!DOCTYPE svg PUBLIC "-//W3C//DTD SVG 1.1//EN" "http://www.w3.org/Graphics/SVG/1.1/DTD/svg11.dtd"><svg width="100%" height="100%" viewBox="0 0 6 6" version="1.1" xmlns="http://www.w3.org/2000/svg" xmlns:xlink="http://www.w3.org/1999/xlink" xml:space="preserve" xmlns:serif="http://www.serif.com/" style="fill-rule:evenodd;clip-rule:evenodd;stroke-linejoin:round;stroke-miterlimit:2;"><g><path d="M4.55,0.681l-0,0.378l0.595,0l0,0.001c0.188,0.001 0.359,0.077 0.482,0.2c0.122,0.123 0.198,0.292 0.198,0.48l0.001,-0l0,3.579l-0.001,-0c-0,0.187 -0.076,0.358 -0.2,0.481c-0.122,0.122 -0.292,0.199 -0.479,0.199l-0,0.001l-3.014,0l-0,-0.001c-0.188,-0 -0.359,-0.077 -0.482,-0.2c-0.122,-0.123 -0.198,-0.292 -0.199,-0.48l-0.001,0l0,-0.802l-0.595,0l-0,-0.001c-0.188,-0 -0.359,-0.077 -0.482,-0.2c-0.122,-0.123 -0.198,-0.292 -0.198,-0.48l-0.001,0l-0,-3.155l0.001,0c0,-0.188 0.077,-0.358 0.2,-0.481c0.122,-0.122 0.292,-0.199 0.479,-0.199l0,-0.001l3.014,0l0,0.001c0.188,0 0.359,0.077 0.482,0.2c0.122,0.123 0.198,0.292 0.199,0.48l0.001,-0Zm-0.517,0.378l-0,-0.378l0.001,-0c-0,-0.045 -0.019,-0.086 -0.049,-0.116c-0.03,-0.03 -0.072,-0.049 -0.116,-0.049l-0,0.001l-3.014,0l-0,-0.001c-0.045,0 -0.086,0.019 -0.116,0.049c-0.03,0.03 -0.049,0.072 -0.049,0.116l0.001,0l0,3.155l-0.001,0c0,0.045 0.019,0.086 0.05,0.116c0.029,0.03 0.071,0.049 0.115,0.049l0,-0.001l0.596,-0l-0,-2.26l0.001,0c0,-0.188 0.077,-0.358 0.2,-0.481c0.123,-0.122 0.292,-0.198 0.48,-0.199l-0,-0.001l1.901,0Zm1.276,4.26l0,-3.579l0.001,-0c0,-0.045 -0.019,-0.086 -0.049,-0.116c-0.03,-0.03 -0.071,-0.049 -0.116,-0.049l0,0.001l-3.014,0l0,-0.001c-0.044,0 -0.085,0.019 -0.116,0.05c-0.029,0.029 -0.048,0.071 -0.048,0.115l0.001,0l-0,3.579l-0.001,0c-0,0.045 0.019,0.086 0.049,0.116c0.03,0.03 0.071,0.049 0.116,0.049l-0,-0.001l3.014,-0l-0,0.001c0.044,-0 0.085,-0.019 0.115,-0.049c0.03,-0.03 0.049,-0.072 0.049,-0.116l-0.001,-0Z" style="fill:#fff;"/></g></svg>